[Header]
FileType HTR
DataType HTRS
FileVersion 1
NumSegments 22
NumFrames 4
DataFrameRate 24
EulerRotationOrder ZYX
CalibrationUnits mm
RotationUnits Degrees
GlobalAxisofGravity Y
BoneLengthAxis Y
ScaleFactor 1.0
[SegmentNames&Hierarchy]
reference	GLOBAL
Hips	reference
Spine	Hips
Spine1	Spine
Neck	Spine1
Head	Neck
LeftShoulder	Spine1
LeftArm	LeftShoulder
LeftForeArm	LeftArm
LeftHand	LeftForeArm
RightShoulder	Spine1
RightArm	RightShoulder
RightForeArm	RightArm
RightHand	RightForeArm
LeftUpLeg	Hips
LeftLeg	LeftUpLeg
LeftFoot	LeftLeg
LeftToeBase	LeftFoot
RightUpLeg	Hips
RightLeg	RightUpLeg
RightFoot	RightLeg
RightToeBase	RightFoot
[BasePosition]
reference	0	0	0	0	0	0	1
Hips	0	0	0	0	0	0	1
Spine	0	0	0	0	-0	90	1
Spine1	0	0	0	0	0	0	1
Neck	0	0	0	-7.352430803	-7.352430803	90	1
Head	0	0	0	0	-0	90	1
LeftShoulder	0	0	0	0	0	0	1
LeftArm	0	0	0	0	0	0	1
LeftForeArm	0	0	0	0	0	0	1
LeftHand	0	0	0	0	0	0	1
RightShoulder	0	0	0	0	-0	180	1
RightArm	0	0	0	0	-0	180	1
RightForeArm	0	0	0	0	-0	180	1
RightHand	0	0	0	0	-0	180	1
LeftUpLeg	0	0	0	0	-0	-90	1
LeftLeg	0	0	0	0	-0	-90	1
LeftFoot	0	0	0	66.57150701	-66.57150701	-90	1
LeftToeBase	0	0	0	0	-90	0	1
RightUpLeg	0	0	0	0	-0	-90	1
RightLeg	0	0	0	0	-0	-90	1
RightFoot	0	0	0	66.57150701	-66.57150701	-90	1
RightToeBase	0	0	0	0	-90	0	1
[reference]
10	0	0	0	0	-0	0	1.0
11	0	0	0	0	-0	0	1.0
12	0	0	0	0	-0	0	1.0
13	0	0	0	0	-0	0	1.0
[Hips]
10	6.044014931	8.396450043	0.9580200315	0.4610338211	-103.013916	2.862669945	1.0
11	6.037755966	8.396450043	0.9580200315	0.8778465986	-102.768631	2.536842108	1.0
12	6.031522274	8.396450043	0.9580200315	0.8076967597	-102.5427399	2.566144228	1.0
13	6.025279999	8.396450043	0.9580200315	1.578048706	-102.3570099	2.065338135	1.0
[Spine]
10	0	0.7478299737	0	-13.32245636	0.9311347008	-88.87477875	1.0
11	0	0.7478299737	0	-13.31014729	0.8853083849	-88.829422	1.0
12	0	0.7478299737	0	-13.28133965	0.8777244091	-88.73742676	1.0
13	0	0.7478299737	0	-13.45855427	0.918161571	-88.70698547	1.0
[Spine1]
10	0	2.049309969	0	11.21777344	0.4538778067	-1.913464189	1.0
11	0	2.049309969	0	11.25957489	0.4430502951	-1.967936158	1.0
12	0	2.049309969	0	11.33637428	0.4411808252	-2.001030684	1.0
13	0	2.049309969	0	11.31878662	0.4581105709	-2.064673424	1.0
[Neck]
10	0	2.231709957	0	2.381679296	10.38094521	-84.7997818	1.0
11	0	2.231709957	0	2.434724808	10.41450119	-84.71107483	1.0
12	0	2.231709957	0	2.502777338	10.42634869	-84.73946381	1.0
13	0	2.231709957	0	2.534553051	10.42791557	-84.76473236	1.0
[Head]
10	0	1.413589954	0.1823999882	-8.210806847	3.887588263	-96.68399048	1.0
11	0	1.413589954	0.1823999882	-8.486093521	3.924367189	-96.88948822	1.0
12	0	1.413589954	0.1823999882	-8.619625092	3.926992416	-96.87676239	1.0
13	0	1.413589954	0.1823999882	-8.603915215	3.923718452	-96.78220367	1.0
[LeftShoulder]
10	0.3649300039	1.825889945	-0.04271000251	-11.67650509	-7.250027657	3.454975605	1.0
11	0.3649300039	1.825889945	-0.04271000251	-11.68170738	-7.305033684	3.36006093	1.0
12	0.3649300039	1.825889945	-0.04271000251	-11.71701527	-7.341884136	3.298488855	1.0
13	0.3649300039	1.825889945	-0.04271000251	-11.72564697	-7.242491245	3.259244204	1.0
[LeftArm]
10	1.24003005	0	0	39.56163788	7.073615551	-81.03074646	1.0
11	1.24003005	0	0	39.90701294	6.990597248	-81.18823242	1.0
12	1.24003005	0	0	40.5178299	6.901870728	-81.48252106	1.0
13	1.24003005	0	0	40.97054291	6.85806036	-81.78291321	1.0
[LeftForeArm]
10	2.847419977	0	0	-10.28416348	-11.9746027	-3.655386448	1.0
11	2.847419977	0	0	-9.817178726	-12.16267681	-3.717951298	1.0
12	2.847419977	0	0	-10.26358509	-12.47726917	-3.612141132	1.0
13	2.847419977	0	0	-10.73744965	-12.89355183	-3.449008942	1.0
[LeftHand]
10	2.258270025	0	0	-10.70436287	-7.885394096	0.5284440517	1.0
11	2.258270025	0	0	-10.2347908	-8.331718445	0.2914255559	1.0
12	2.258270025	0	0	-10.6762619	-7.922111988	0.2507073879	1.0
13	2.258270025	0	0	-11.11344147	-7.610480785	-0.2125080973	1.0
[RightShoulder]
10	-0.3646599948	1.825889945	-0.04271000251	-8.473861694	6.159181595	176.7032166	1.0
11	-0.3646599948	1.825889945	-0.04271000251	-8.432321548	6.152085781	176.6646576	1.0
12	-0.3646599948	1.825889945	-0.04271000251	-8.45349884	6.172702312	176.5726318	1.0
13	-0.3646599948	1.825889945	-0.04271000251	-8.53932476	6.182165146	176.5102081	1.0
[RightArm]
10	-1.24003005	0	0	43.6416893	-3.555750847	-95.42035675	1.0
11	-1.24003005	0	0	43.22374725	-3.460687399	-95.5831604	1.0
12	-1.24003005	0	0	43.05181122	-3.422689915	-95.72583008	1.0
13	-1.24003005	0	0	42.89974213	-3.468199492	-95.86975098	1.0
[RightForeArm]
10	-2.847419977	0	0	-1.145215988	13.57381916	179.0616913	1.0
11	-2.847419977	0	0	-0.9947758913	13.61166	179.2223053	1.0
12	-2.847419977	0	0	-0.8248159885	13.5518856	179.363739	1.0
13	-2.847419977	0	0	-0.4275177419	13.36453247	179.528656	1.0
[RightHand]
10	-2.258270025	0	0	-1.326239347	7.285403252	175.4076385	1.0
11	-2.258270025	0	0	-1.205973506	7.197788239	175.1730957	1.0
12	-2.258270025	0	0	-1.046144485	7.205276966	175.2901764	1.0
13	-2.258270025	0	0	-0.685716033	7.356746674	175.1313477	1.0
[LeftUpLeg]
10	0.9119900465	0	0	4.570971489	8.765081406	91.62726593	1.0
11	0.9119900465	0	0	4.423985481	8.868366241	91.5942688	1.0
12	0.9119900465	0	0	4.469795227	8.940522194	91.59729767	1.0
13	0.9119900465	0	0	4.11811924	8.705431938	91.35010529	1.0
[LeftLeg]
10	0	-4.371409893	0	2.119528294	-2.744067907	88.81083679	1.0
11	0	-4.371409893	0	2.256642342	-3.011314392	88.80752563	1.0
12	0	-4.371409893	0	2.168649197	-3.201601505	88.89115906	1.0
13	0	-4.371409893	0	2.209920883	-2.912931681	88.91622925	1.0
[LeftFoot]
10	0	-3.918009996	0	-104.4182358	111.4726791	-45.7619133	1.0
11	0	-3.918009996	0	-104.5270691	111.4135437	-45.90213394	1.0
12	0	-3.918009996	0	-105.0662155	111.3370209	-46.42447662	1.0
13	0	-3.918009996	0	-105.069809	111.3204117	-46.54278564	1.0
[LeftToeBase]
10	0	-0.5927900076	1.367989898	0	0	0	1.0
11	0	-0.5927900076	1.367989898	0	0	0	1.0
12	0	-0.5927900076	1.367989898	0	0	0	1.0
13	0	-0.5927900076	1.367989898	0	0	0	1.0
[RightUpLeg]
10	-0.9119900465	0	0	7.517837048	-15.50551319	92.41416931	1.0
11	-0.9119900465	0	0	7.478084087	-15.71369743	92.38157654	1.0
12	-0.9119900465	0	0	7.578397274	-15.77035332	92.38677979	1.0
13	-0.9119900465	0	0	7.250428677	-15.7024622	92.34159851	1.0
[RightLeg]
10	0	-4.371409893	0	-2.222233772	-5.571820259	91.87867737	1.0
11	0	-4.371409893	0	-2.178109169	-5.688114643	91.82678223	1.0
12	0	-4.371409893	0	-2.285266399	-5.74914217	91.82925415	1.0
13	0	-4.371409893	0	-2.246890545	-5.813400745	91.81105804	1.0
[RightFoot]
10	0	-3.918009996	0	40.46626663	66.35719299	91.63186646	1.0
11	0	-3.918009996	0	40.73327637	66.66854095	91.84358215	1.0
12	0	-3.918009996	0	40.45855331	66.58130646	91.61634064	1.0
13	0	-3.918009996	0	39.96746063	66.74221039	91.11988831	1.0
[RightToeBase]
10	0	-0.5927900076	1.367989898	0	0	0	1.0
11	0	-0.5927900076	1.367989898	0	0	0	1.0
12	0	-0.5927900076	1.367989898	0	0	0	1.0
13	0	-0.5927900076	1.367989898	0	0	0	1.0
[EndOfFile]
